<?xml version="1.0" encoding="UTF-8"?>
<svg id="a" data-name="Layer 1" xmlns="http://www.w3.org/2000/svg" viewBox="0 0 300 300">
  <defs>
    <style>
      .e {
        fill: #fff;
      }

      .f {
        fill: #f60;
      }

      .g {
        fill: #a9b5af;
      }
    </style>
  </defs>
  <g id="d" data-name="B">
    <circle class="f" cx="150" cy="150" r="120"/>
    <path class="e" d="m198.87,117.52h-34c-2.34.01-4.25-1.87-4.26-4.21,0-.02,0-.04,0-.05v-34c0-2.34-1.9-4.23-4.23-4.23,0,0-.02,0-.03,0h-12.73c-2.34-.01-4.25,1.87-4.26,4.21,0,0,0,.02,0,.03v34c.01,2.34-1.87,4.25-4.21,4.26-.02,0-.04,0-.05,0h-12.73c-2.34.01-4.25-1.87-4.26-4.21,0-.02,0-.04,0-.05v-34c.01-2.34-1.87-4.25-4.21-4.26-.02,0-.04,0-.05,0h-12.75c-2.34,0-4.23,1.9-4.23,4.23,0,0,0,.02,0,.03v97.78c-.01,2.34,1.87,4.25,4.21,4.26.02,0,.04,0,.05,0h97.75c2.34.01,4.25-1.87,4.26-4.21,0-.02,0-.04,0-.05v-55.17c.06-2.34-1.79-4.28-4.13-4.34-.04,0-.09,0-.13,0Zm-17.09,36.11c.01,3.51-2.82,6.38-6.34,6.39,0,0-.02,0-.03,0h-8.52c-3.51,0-6.36-2.85-6.36-6.36,0,0,0-.02,0-.03v-8.49c-.01-3.51,2.82-6.38,6.34-6.39,0,0,.02,0,.03,0h8.52c3.51,0,6.36,2.85,6.36,6.36,0,0,0,.02,0,.03v8.49Z"/>
    <g>
      <path class="g" d="m224.11,221.17l-1.29,4.01h-.4l-1.29-4.01h0v4.01h-.35v-4.36h.63l1.22,3.82h0l1.22-3.82h.61v4.36h-.35v-4.01h-.02Z"/>
      <polygon class="g" points="220.37 220.83 218.57 220.83 218.23 220.83 216.44 220.83 216.44 221.17 218.23 221.17 218.23 225.19 218.57 225.19 218.57 221.17 220.37 221.17 220.37 220.83"/>
      <path class="g" d="m178.87,225.12h-2.56l-8.41-25.79v25.79h-2.24v-28.03h4.02l7.83,24.53h.08l7.86-24.53h3.93v28.03h-2.22v-25.79l-8.3,25.79Z"/>
      <path class="e" d="m75.53,197.09v28.03h2.43v-12.67h3.36c.89-.02,1.78.13,2.62.42,2.48.94,2.76,3.82,3.21,5.65l1.41,6.63h2.45l-1.59-7.56c-.47-2.28-.78-3.25-1.41-4.24-.84-1.31-3.24-2.01-3.24-2.01,3.94-.77,5.65-3.41,5.65-7.02,0-3.31-1.6-7.17-8.97-7.17h-5.92v-.06Zm2.43,2.23h3.21c6.41,0,6.79,3.41,6.79,4.95,0,1.28-.23,5.94-7.78,5.94h-2.22v-10.89h0Z"/>
      <path class="e" d="m93.9,210.42h2.49c.23-1.13.71-3.14,4.02-3.14,4.34,0,4.2,3.76,4.2,5.22v1.7s-1.41,0-2.29.08c-3.32.25-8.73,1.12-8.73,6.11s4.14,5.17,4.95,5.17c1.19.02,2.37-.26,3.42-.81,1.04-.56,1.93-1.38,2.59-2.36h.08v2.74h2.01v-13.2c0-1.97.18-6.57-6.04-6.57s-6.7,4.16-6.7,5.08Zm10.7,5.71c0,.75-.05,1.49-.14,2.23-.42,2.74-2.78,4.76-5.56,4.76-1.44.14-2.72-.92-2.86-2.36,0-.09-.01-.17-.01-.26,0-1.02.4-3.42,4.33-4.18.83-.16,4.23-.19,4.23-.19Z"/>
      <path class="e" d="m109.98,197.09v20.12c0,1.09.04,8.36,6.74,8.36,1.61,0,7.49-.57,7.49-9.9s-5.16-10.31-6.72-10.31c-2.52-.01-4.73,1.66-5.4,4.09h-.07v-12.36h-2.05,0Zm11.78,18.53c0,7.82-4.37,7.99-5.05,7.99s-4.62,0-4.62-7.67c0-6.36,3.06-8.66,5.17-8.66s4.5,2.17,4.5,8.35h0Z"/>
      <path class="e" d="m127.36,197.09v20.12c0,1.09.04,8.36,6.74,8.36,1.61,0,7.49-.57,7.49-9.9s-5.16-10.31-6.72-10.31c-2.52-.01-4.73,1.66-5.4,4.09h-.08v-12.36h-2.05.02Zm11.78,18.53c0,7.82-4.37,7.99-5.05,7.99s-4.62,0-4.62-7.67c0-6.36,3.06-8.66,5.17-8.66s4.49,2.17,4.49,8.35h0Z"/>
      <path class="e" d="m147.06,205.78v19.34h-2.03v-19.34h2.03Z"/>
      <path class="e" d="m147.53,197.1v3.29h-3v-3.29h3Z"/>
      <path class="e" d="m161.2,225.39c-.68.09-1.37.15-2.06.18-1.37.08-2.73-.31-3.85-1.11-.85-.71-1.27-1.95-1.27-3.65v-13.08h-3.1v-1.94h3.1v-4.47l2.01-1.35v5.81h5.17v1.94h-5.16v12.44c0,.56-.13,3.44,2.93,3.44.76,0,1.51-.12,2.23-.35v2.12h0v.02Z"/>
      <path class="g" d="m208.03,223.22c2.59-2.22,3.98-6.36,3.98-12.33,0-8.7-3.29-14.28-9.42-14.28-5.75,0-9.76,4.67-9.76,14.28s3.41,14.25,9.59,14.25h11.57v-2.35l-5.96.44Zm-12.54-12.33c0-7.99,2.28-11.87,7.07-11.87s6.76,4.64,6.76,11.87-1.74,11.89-6.88,11.89-6.95-3.9-6.95-11.89Z"/>
    </g>
  </g>
</svg>